<svg width="1920" height="1080" viewBox="0 0 1920 1080" fill="none" xmlns="http://www.w3.org/2000/svg">
<g clip-path="url(#clip0_15_2)">
<rect width="1920" height="1080" fill="#FFE5F3"/>
<path fill-rule="evenodd" clip-rule="evenodd" d="M908.106 19.1684C979.95 16.4581 993.074 140.452 1060.41 165.66C1116.39 186.619 1182.92 110.969 1234.42 141.334C1282.35 169.602 1308.63 247.589 1283.65 297.311C1254.13 356.056 1168.04 351.611 1111.71 385.514C1094.65 395.779 1082.7 411.147 1069.6 426.136C1050.62 447.861 1040.7 475.81 1017.64 493.154C973.539 526.33 924.164 598.536 875.829 571.901C828.517 545.83 859.261 465.539 872.475 413.161C880.839 380.007 944.636 367.941 935.605 334.962C917.195 267.729 813.363 244.653 807.316 175.208C801.833 112.246 844.951 21.5509 908.106 19.1684Z" fill="#E7BCDE"/>
</g>
<defs>
<clipPath id="clip0_15_2">
<rect width="1920" height="1080" fill="white"/>
</clipPath>
</defs>
</svg>